<mxfile host="app.diagrams.net" agent="Mozilla/5.0 (Windows NT 10.0; Win64; x64; rv:109.0) Gecko/20100101 Firefox/116.0" version="25.0.3">
  <diagram id="C5RBs43oDa-KdzZeNtuy" name="Page-1">
    <mxGraphModel dx="1114" dy="829" grid="1" gridSize="10" guides="1" tooltips="1" connect="1" arrows="1" fold="1" page="1" pageScale="1" pageWidth="827" pageHeight="1169" math="0" shadow="0">
      <root>
        <mxCell id="WIyWlLk6GJQsqaUBKTNV-0" />
        <mxCell id="WIyWlLk6GJQsqaUBKTNV-1" parent="WIyWlLk6GJQsqaUBKTNV-0" />
        <mxCell id="JbC7E2ZTBqTir1OGSDIm-0" value="&lt;b&gt;DRY&lt;/b&gt;" style="strokeWidth=2;html=1;shape=mxgraph.flowchart.start_2;whiteSpace=wrap;" vertex="1" parent="WIyWlLk6GJQsqaUBKTNV-1">
          <mxGeometry x="370" y="230" width="60" height="50" as="geometry" />
        </mxCell>
        <mxCell id="JbC7E2ZTBqTir1OGSDIm-1" value="" style="endArrow=classic;html=1;rounded=0;exitX=0.5;exitY=1;exitDx=0;exitDy=0;exitPerimeter=0;" edge="1" parent="WIyWlLk6GJQsqaUBKTNV-1" source="JbC7E2ZTBqTir1OGSDIm-0">
          <mxGeometry width="50" height="50" relative="1" as="geometry">
            <mxPoint x="390" y="410" as="sourcePoint" />
            <mxPoint x="400" y="343" as="targetPoint" />
          </mxGeometry>
        </mxCell>
        <mxCell id="JbC7E2ZTBqTir1OGSDIm-2" value="&lt;font style=&quot;font-size: 14px;&quot;&gt;&lt;b&gt;claving&lt;/b&gt;&lt;/font&gt;" style="rounded=0;whiteSpace=wrap;html=1;" vertex="1" parent="WIyWlLk6GJQsqaUBKTNV-1">
          <mxGeometry x="340" y="344" width="120" height="50" as="geometry" />
        </mxCell>
        <mxCell id="JbC7E2ZTBqTir1OGSDIm-3" value="&lt;b&gt;&lt;font style=&quot;font-size: 14px;&quot;&gt;تبدأ الدوره بولادة بقره جديده &lt;/font&gt;&lt;/b&gt;" style="shape=note;size=20;whiteSpace=wrap;html=1;" vertex="1" parent="WIyWlLk6GJQsqaUBKTNV-1">
          <mxGeometry x="110" y="320" width="140" height="55" as="geometry" />
        </mxCell>
        <mxCell id="JbC7E2ZTBqTir1OGSDIm-9" value="" style="endArrow=none;dashed=1;html=1;rounded=0;exitX=1;exitY=0.818;exitDx=0;exitDy=0;exitPerimeter=0;" edge="1" parent="WIyWlLk6GJQsqaUBKTNV-1" source="JbC7E2ZTBqTir1OGSDIm-3">
          <mxGeometry width="50" height="50" relative="1" as="geometry">
            <mxPoint x="770" y="120" as="sourcePoint" />
            <mxPoint x="340" y="370" as="targetPoint" />
          </mxGeometry>
        </mxCell>
      </root>
    </mxGraphModel>
  </diagram>
</mxfile>
